<?xml version="1.0" encoding="UTF-8" standalone="no"?>
<svg
   xmlns:dc="http://purl.org/dc/elements/1.1/"
   xmlns:cc="http://creativecommons.org/ns#"
   xmlns:rdf="http://www.w3.org/1999/02/22-rdf-syntax-ns#"
   xmlns:svg="http://www.w3.org/2000/svg"
   xmlns="http://www.w3.org/2000/svg"
   xmlns:sodipodi="http://sodipodi.sourceforge.net/DTD/sodipodi-0.dtd"
   xmlns:inkscape="http://www.inkscape.org/namespaces/inkscape"
   inkscape:version="1.0 (4035a4fb49, 2020-05-01)"
   sodipodi:docname="boy.svg"
   xml:space="preserve"
   style="enable-background:new 0 0 159.221 159.221;"
   viewBox="0 0 159.221 159.221"
   y="0px"
   x="0px"
   id="Capa_1"
   version="1.1"><metadata
   id="metadata139"><rdf:RDF><cc:Work
       rdf:about=""><dc:format>image/svg+xml</dc:format><dc:type
         rdf:resource="http://purl.org/dc/dcmitype/StillImage" /><dc:title></dc:title></cc:Work></rdf:RDF></metadata><defs
   id="defs137">
		
		
	
			
			
		</defs><sodipodi:namedview
   inkscape:current-layer="g102"
   inkscape:window-maximized="1"
   inkscape:window-y="-9"
   inkscape:window-x="-9"
   inkscape:cy="79.610497"
   inkscape:cx="48.245879"
   inkscape:zoom="5.2128804"
   showgrid="false"
   id="namedview135"
   inkscape:window-height="1001"
   inkscape:window-width="1920"
   inkscape:pageshadow="2"
   inkscape:pageopacity="0"
   guidetolerance="10"
   gridtolerance="10"
   objecttolerance="10"
   borderopacity="1"
   bordercolor="#666666"
   pagecolor="#ffffff" />
<g
   id="g102">
	<g
   id="g6">
		<path
   id="path2"
   d="M40.61,84.755c-4,0-7.667-3.433-7.667-7.667s3.667-7.667,7.667-7.667V84.755z"
   style="fill:#FCD0A3;" />
		<path
   id="path4"
   d="M118.61,84.755c4,0,7.667-3.433,7.667-7.667s-3.667-7.667-7.667-7.667V84.755z"
   style="fill:#FCD0A3;" />
	</g>
	<g
   id="g14">
				<rect
   id="rect8"
   height="20.966"
   width="7.0029998"
   style="fill:#fcd0a3"
   y="113.23"
   x="76.649002" />
				<path
   id="path10"
   d="m 80.15,120.634 v 0 c -21.907,0 -39.667,-17.76 -39.667,-39.667 v -34 C 40.483,25.059 58.242,7.3 80.15,7.3 v 0 c 21.907,0 39.667,17.76 39.667,39.667 v 34 c 0,21.907 -17.76,39.667 -39.667,39.667 z"
   style="fill:#fcd0a3" />
				<path
   id="path12"
   d="M 58.567,110.184 C 52.675,102.818 50.93,94.105 50.726,84.86 50.524,75.703 50.461,67.375 51.021,58.196 51.564,49.279 53.339,40.555 57.835,33.191 64.018,23.064 75.159,13.509 85.821,7.71 83.969,7.445 82.076,7.3 80.15,7.3 v 0 C 58.243,7.3 40.483,25.06 40.483,46.967 v 34 c 0,18.021 12.022,33.227 28.481,38.057 -3.944,-2.297 -7.495,-5.211 -10.397,-8.84 z"
   style="opacity:0.16;fill:#fcd0a3" />
			</g>
	
<path
   id="path164"
   d="m 35.911048,66.143853 c -0.370731,-0.370731 -0.268339,-0.912495 0.313834,-1.660521 0.698269,-0.897195 1.471978,-2.295854 1.341948,-2.425883 -0.05532,-0.05532 -0.413198,0.03004 -0.795287,0.189686 -0.999237,0.417508 -1.798971,0.375387 -2.057879,-0.108388 -0.307597,-0.574751 -0.139094,-0.838216 1.004166,-1.57008 1.112734,-0.712324 1.878734,-1.682525 2.383511,-3.01891 0.273362,-0.723719 0.349141,-1.979463 0.468838,-7.769218 0.150402,-7.275002 0.334111,-9.163855 1.242185,-12.77186 3.490333,-13.867966 13.831585,-25.023883 27.341614,-29.4955391 4.218499,-1.396272 7.429367,-1.9072131 13.415681,-2.1348201 3.819825,-0.1452345 4.809374,-0.246533 6.481678,-0.6635192 2.803429,-0.6990296 6.836905,-2.0897763 9.632254,-3.3212105 4.043079,-1.7810949 4.637579,-1.61277972 3.612429,1.0227444 -0.417598,1.0735999 -0.618363,1.9703646 -0.687712,3.0718581 -0.114326,1.8158711 0.084,2.1150764 0.890062,1.3428175 0.29551,-0.2831164 0.74411,-0.5005369 1.03274,-0.5005369 0.83723,0 0.97317,0.5259192 0.82196,3.1800582 l -0.13375,2.3477796 1.59632,1.194818 c 3.95396,2.959456 6.52361,5.464758 9.09086,8.863203 5.99314,7.933543 9.10351,18.587344 8.33096,28.535621 -0.1188,1.529865 -0.49606,4.896525 -0.83835,7.481469 -0.49618,3.747024 -0.66499,4.621828 -0.83265,4.314835 -0.11566,-0.211785 -2.45576,-5.488597 -5.20022,-11.726248 -2.74446,-6.237652 -5.16464,-11.683648 -5.37818,-12.102215 -0.81324,-1.594077 -2.38411,-2.568976 -4.34438,-2.696172 -1.69338,-0.10988 -2.22659,0.107622 -4.21935,1.721139 -11.769423,9.529535 -26.956081,18.43451 -38.558342,22.609386 -2.297422,0.826689 -2.30865,0.828558 -5.659059,0.942558 -3.711665,0.126291 -4.424673,0.314193 -5.811005,1.531409 -0.647319,0.568353 -0.892929,0.64504 -2.867742,0.895405 -2.849672,0.361278 -6.418054,1.254922 -8.755278,2.19262 -2.008504,0.805814 -2.494196,0.895375 -2.861856,0.527714 z"
   style="fill:none;stroke-width:0.191833" /><path
   id="path170"
   d="m 64.839392,71.124205 c 0,-0.163326 0.141843,-0.351387 0.315206,-0.417912 0.472372,-0.181266 0.502097,-0.02478 0.06964,0.366592 -0.325282,0.294377 -0.384841,0.302319 -0.384841,0.05132 z"
   style="fill:#fcd0a3;fill-opacity:1;stroke-width:0.191833" /><path
   id="path172"
   d="m 62.551325,69.897084 c -0.218673,-0.277998 -0.397588,-0.713546 -0.397588,-0.967882 0,-0.687605 0.812987,-1.406631 1.573899,-1.391995 0.571213,0.01099 0.590553,0.02889 0.200552,0.185651 -0.475437,0.191102 -0.556585,0.559657 -0.201424,0.914818 0.33571,0.33571 0.858838,0.281427 1.016779,-0.105508 0.233522,-0.5721 0.458687,0.332159 0.239844,0.963212 -0.356664,1.028472 -1.757098,1.259781 -2.432062,0.401704 z"
   style="fill:#fcd0a3;fill-opacity:1;stroke-width:0.191833" /><path
   id="path210"
   d=""
   style="fill:#898999;fill-opacity:1;stroke-width:0.191833" /><path
   id="path214"
   d=""
   style="fill:#898999;fill-opacity:1;stroke-width:0.191833" /><path
   id="path216"
   d=""
   style="fill:#898999;fill-opacity:1;stroke-width:0.191833" /><path
   id="path248"
   d=""
   style="fill:#fcd0a3;fill-opacity:1;stroke-width:0.191833" /></g>
<g
   id="g104">
</g>
<g
   id="g106">
</g>
<g
   id="g108">
</g>
<g
   id="g110">
</g>
<g
   id="g112">
</g>
<g
   id="g114">
</g>
<g
   id="g116">
</g>
<g
   id="g118">
</g>
<g
   id="g120">
</g>
<g
   id="g122">
</g>
<g
   id="g124">
</g>
<g
   id="g126">
</g>
<g
   id="g128">
</g>
<g
   id="g130">
</g>
<g
   id="g132">
</g>
</svg>
